<svg xmlns="http://www.w3.org/2000/svg" xmlns:svg="http://www.w3.org/2000/svg" xmlns:xlink="http://www.w3.org/1999/xlink" version="1.0" height="551.0000007152557pt" width="735.5317211403847pt" viewBox="316.8985 552 743.5317211403847 557.0000007152557" ><defs><style type="text/css">
            @font-face {
                font-family: 'noto_regular';
                src: url('https://app.creately.com/diagram/assets/fonts/noto/noto-regular.woff') format('woff'),
                     url('https://app.creately.com/diagram/assets/fonts/noto/noto-regular.woff2') format('woff2');
                font-weight: normal;
                font-style: normal;
            }
        p {
            margin: 0;
        }
        </style></defs><defs><style>
            span{ display: inline-block; }
        </style></defs><g id="6kk4gps2yi"><g transform="translate(330 775)"><ellipse cx="20.3985" cy="10.10075" rx="10.19925" ry="10.10075" fill="rgba(255,255,255,1)" stroke="#5e5ca7" stroke-width="1.5" stroke-linecap="round" stroke-linejoin="round"/><path d="M 20.3985,20.2015 L 20.3985,48.483599999999996 L 40.797,80.806 M 20.3985,48.483599999999996 L 0,80.806 M 2.03985,30.30225 L 38.757149999999996,30.30225" fill="none" stroke="#5e5ca7" stroke-width="1.5" stroke-linecap="round" stroke-linejoin="round"/><rect x="0" y="0" width="40.797" height="80.806" fill="rgba(255,255,255,0.01)" stroke="rgba(255,255,255,0.01)" stroke-width="1.5" stroke-linecap="round" stroke-linejoin="round"/></g><g transform="translate(321.8985, 860.806) rotate(0, 28.5, 0)" width="57" height="64"><text text-decoration="none" x="15" fill="rgb(0, 0, 0)" font-size="9pt" font-family="Arial"  y="11">Bank&#160;</text><text text-decoration="none" x="3" fill="rgb(0, 0, 0)" font-size="9pt" font-family="Arial"  y="26">customer</text><text text-decoration="none" x="54" fill="rgb(0, 0, 0)" font-size="9pt" font-family="Arial"  y="26"></text><text text-decoration="none" x="10" fill="rgb(0, 0, 0)" font-size="9pt" font-family="Arial"  y="45">(Actor)</text><text text-decoration="none" x="47" fill="#4b4b4b" font-size="10pt" font-family="noto_regular"  y="45"></text></g></g><g id="do6nd4h1yg"><g transform="translate(620 555)"><path d="M 0.5,25.200001098632814 C 0.49999940232700224,44.423255682153005 54.41666569544804,56.43779005143417 97.54999932761787,46.826162959448 C 117.56824961302152,42.365391194896894 129.90000027738103,34.121544813165826 129.9,25.200001098632814 C 129.900000597673,5.976746515112623 75.98333430455199,-6.037787854168542 32.850000672382144,3.5738392378176287 C 12.831750386978484,8.034611002368731 0.49999972261898973,16.2784573840998 0.5,25.200001098632814" fill="rgb(246, 246, 246)" stroke="rgb(98, 98, 98)" stroke-width="1.5" vector-effect="non-scaling-stroke"/></g><g transform="translate(646.7, 561.699999860037) rotate(0, 38.5, 0)" width="77" height="34"><text text-decoration="none" x="6" fill="#000000" font-size="9pt" font-family="Arial"  y="11">Enter&#160;</text><text text-decoration="none" x="37" fill="#000000" font-size="9pt" font-family="Arial"  y="11">card&#160;</text><text text-decoration="none" x="64" fill="#000000" font-size="9pt" font-family="Arial"  y="11">&#x26;</text><text text-decoration="none" x="71" fill="#000000" font-size="9pt" font-family="Arial"  y="11"></text><text text-decoration="none" x="5.5" fill="#000000" font-size="9pt" font-family="Arial"  y="30">Pin&#160;</text><text text-decoration="none" x="26.5" fill="#000000" font-size="9pt" font-family="Arial"  y="30">number&#160;</text><text text-decoration="none" x="71.5" fill="#4b4b4b" font-size="10pt" font-family="noto_regular"  y="30"></text></g></g><g id="2ai3keaxj8"><g><path d="M 406,705 L 406,705" fill="none" stroke="#000000" stroke-width="1" stroke-linecap="round" stroke-linejoin="round"/></g></g><g id="1obq0u556k"><g><path d="M 385,800 L 620,585" fill="none" stroke="#000000" stroke-width="1" stroke-linecap="round" stroke-linejoin="round"/><path d="M 620,585 L 606.1576588508078,589.193201312754 L 613.5843286591685,590.8696567586331 L 614.5953271266976,598.4157689631453 Z" fill="rgb(0,0,0)" stroke="#000000" stroke-width="1" stroke-linecap="round" stroke-linejoin="round"/></g></g><g id="21uamxo02c"><g transform="translate(1000 785) rotate(7.0887940356370105e-15)"><rect x="0" y="0" width="57.430221140384674" height="80.62927573919296" fill="rgba(255,255,255,1)" stroke="#000000" stroke-width="1.5" stroke-linecap="round" stroke-linejoin="round"/></g><g transform="translate(1006.2151105701923, 795) rotate(0, 22.5, 0)" width="45" height="18"><text text-decoration="none" x="1" fill="rgb(84, 84, 84)" font-size="10pt" font-family="noto_regular"  y="15">System</text><text text-decoration="none" x="44" fill="#4b4b4b" font-size="10pt" font-family="noto_regular"  y="15"></text></g><g transform="translate(1016.7151105701923, 761) rotate(0, 12, 19)" width="24" height="19"><text text-decoration="none" x="0" fill="rgb(0, 0, 0)" font-size="9pt" font-family="Arial"  y="15">ATM</text><text text-decoration="none" x="25" fill="#4b4b4b" font-size="10pt" font-family="noto_regular"  y="15"></text></g></g><g id="1gb86x1nac"><mask id="70e96" x="737" y="569" width="275" height="228" maskUnits="userSpaceOnUse"><rect x="737" y="569" width="275" height="228" fill="white" /><rect x="810.5" y="663" width="128" height="40" fill="black" /></mask><g mask="url(#70e96)"><path d="M 749,581 L 1000,785" fill="none" stroke="#000000" stroke-width="1" stroke-linecap="round" stroke-linejoin="round"/><path d="M 1000,785 L 993.8199828791949,771.9232750993815 L 993.2520343702004,779.5155976554616 L 985.9361202314063,781.6235178670036 Z" fill="rgb(0,0,0)" stroke="#000000" stroke-width="1" stroke-linecap="round" stroke-linejoin="round"/></g><g transform="translate(813.5, 666)" width="122" height="34"><text text-decoration="none" x="8" fill="rgb(0, 0, 0)" font-size="9pt" font-family="Arial"  y="11">Authenticate&#160;</text><text text-decoration="none" x="80" fill="rgb(0, 0, 0)" font-size="9pt" font-family="Arial"  y="11">card&#160;</text><text text-decoration="none" x="107" fill="rgb(0, 0, 0)" font-size="9pt" font-family="Arial"  y="11">&#x26;</text><text text-decoration="none" x="114" fill="rgb(0, 0, 0)" font-size="9pt" font-family="Arial"  y="11"></text><text text-decoration="none" x="30" fill="rgb(0, 0, 0)" font-size="9pt" font-family="Arial"  y="30">pin&#160;</text><text text-decoration="none" x="50" fill="rgb(0, 0, 0)" font-size="9pt" font-family="Arial"  y="30">number</text><text text-decoration="none" x="92" fill="#4b4b4b" font-size="10pt" font-family="noto_regular"  y="30"></text></g></g><g id="cbuxs5wcgc"><g transform="translate(620 625)"><ellipse cx="71.78099536895752" cy="31.204226970672607" rx="71.78099536895752" ry="31.204226970672607" fill="rgba(255,255,255,1)" stroke="#5e5ca7" stroke-width="1.5" stroke-linecap="round" stroke-linejoin="round"/></g><g transform="translate(637.7809953689575, 639.2042269706726) rotate(0, 54, 17)" width="108" height="34"><text text-decoration="none" x="18.5" fill="rgb(0, 0, 0)" font-size="9pt" font-family="Arial"  y="11">choose&#160;</text><text text-decoration="none" x="60.5" fill="rgb(0, 0, 0)" font-size="9pt" font-family="Arial"  y="11">cash&#160;</text><text text-decoration="none" x="89.5" fill="rgb(0, 0, 0)" font-size="9pt" font-family="Arial"  y="11"></text><text text-decoration="none" x="5" fill="rgb(0, 0, 0)" font-size="9pt" font-family="Arial"  y="30">withdrawal&#160;</text><text text-decoration="none" x="68" fill="rgb(0, 0, 0)" font-size="9pt" font-family="Arial"  y="30">option</text><text text-decoration="none" x="103" fill="#4b4b4b" font-size="10pt" font-family="noto_regular"  y="30"></text></g></g><g id="24kx4qnvt2"><g><path d="M 385,800 L 620,660" fill="none" stroke="#000000" stroke-width="1" stroke-linecap="round" stroke-linejoin="round"/><path d="M 620,660 L 605.5955940639082,661.306306000975 L 612.5295842721662,664.4504604336031 L 611.9931587525904,672.0450752998345 Z" fill="rgb(0,0,0)" stroke="#000000" stroke-width="1" stroke-linecap="round" stroke-linejoin="round"/></g></g><g id="p06gkxoe9o"><mask id="14ba6" x="753" y="648" width="259" height="159" maskUnits="userSpaceOnUse"><rect x="753" y="648" width="259" height="159" fill="white" /><rect x="849.5" y="707.5" width="66" height="40" fill="black" /><rect x="958.986833725877" y="767.5562661829506" width="30" height="25" fill="black" /></mask><g mask="url(#14ba6)"><path d="M 765,660 L 1000,795" fill="none" stroke="#000000" stroke-width="1" stroke-linecap="round" stroke-linejoin="round"/><path d="M 765,660 L 773.1967452405314,671.9166569641711 L 772.5400154127223,664.3314982158192 L 779.4233009976354,661.0778376832865 Z" fill="rgb(0,0,0)" stroke="#000000" stroke-width="1" stroke-linecap="round" stroke-linejoin="round"/></g><g transform="translate(852.5, 710.5)" width="60" height="34"><text text-decoration="none" x="3" fill="rgb(0, 0, 0)" font-size="9pt" font-family="Arial"  y="11">gives&#160;</text><text text-decoration="none" x="34" fill="rgb(0, 0, 0)" font-size="9pt" font-family="Arial"  y="11">task</text><text text-decoration="none" x="57" fill="rgb(0, 0, 0)" font-size="9pt" font-family="Arial"  y="11"></text><text text-decoration="none" x="12.5" fill="rgb(0, 0, 0)" font-size="9pt" font-family="Arial"  y="30">option</text><text text-decoration="none" x="47.5" fill="#4b4b4b" font-size="10pt" font-family="noto_regular"  y="30"></text></g><g transform="translate(961.986833725877, 770.5562661829506)" width="24" height="19"><text text-decoration="none" x="2" fill="rgb(0, 0, 0)" font-size="9pt" font-family="Arial"  y="15">text</text><text text-decoration="none" x="22" fill="#4b4b4b" font-size="10pt" font-family="noto_regular"  y="15"></text></g></g><g id="af8stniglq"><g transform="translate(625 710)"><ellipse cx="73.01838308572769" cy="27.999999344348907" rx="73.01838308572769" ry="27.999999344348907" fill="rgba(255,255,255,1)" stroke="#5e5ca7" stroke-width="1.5" stroke-linecap="round" stroke-linejoin="round"/></g><g transform="translate(642.0183830857277, 720.9999993443489) rotate(0, 56, 17)" width="112" height="34"><text text-decoration="none" x="26" fill="rgb(0, 0, 0)" font-size="9pt" font-family="Arial"  y="11">Enter&#160;</text><text text-decoration="none" x="57" fill="rgb(0, 0, 0)" font-size="9pt" font-family="Arial"  y="11">cash&#160;</text><text text-decoration="none" x="86" fill="rgb(0, 0, 0)" font-size="9pt" font-family="Arial"  y="11"></text><text text-decoration="none" x="5" fill="rgb(0, 0, 0)" font-size="9pt" font-family="Arial"  y="30">wihdrawal&#160;</text><text text-decoration="none" x="64" fill="rgb(0, 0, 0)" font-size="9pt" font-family="Arial"  y="30">amount</text><text text-decoration="none" x="107" fill="#4b4b4b" font-size="10pt" font-family="noto_regular"  y="30"></text></g></g><g id="1p41rrropl"><g><path d="M 385,800 L 625,735" fill="none" stroke="#000000" stroke-width="1" stroke-linecap="round" stroke-linejoin="round"/><path d="M 625,735 L 610.7762988162399,732.3770874252077 L 616.6067636930279,737.2731681664716 L 614.0439922628439,744.442417074207 Z" fill="rgb(0,0,0)" stroke="#000000" stroke-width="1" stroke-linecap="round" stroke-linejoin="round"/></g></g><g id="mth6neyyvo"><g><path d="M 772,733 L 1000,815" fill="none" stroke="#000000" stroke-width="1" stroke-linecap="round" stroke-linejoin="round"/><path d="M 1000,815 L 989.8414067037035,804.7045481895965 L 991.8174913020147,812.0571679244088 L 985.6110672023406,816.4669555836298 Z" fill="rgb(0,0,0)" stroke="#000000" stroke-width="1" stroke-linecap="round" stroke-linejoin="round"/></g></g><g id="605zm4x9os"><g transform="translate(625 785)"><ellipse cx="73.0000010728836" cy="25.50000050663948" rx="73.0000010728836" ry="25.50000050663948" fill="rgba(255,255,255,1)" stroke="#5e5ca7" stroke-width="1.5" stroke-linecap="round" stroke-linejoin="round"/></g><g transform="translate(646.0000010728836, 793.5000005066395) rotate(0, 52, 17)" width="104" height="34"><text text-decoration="none" x="6.5" fill="rgb(0, 0, 0)" font-size="9pt" font-family="Arial"  y="11">Enter&#160;</text><text text-decoration="none" x="37.5" fill="rgb(0, 0, 0)" font-size="9pt" font-family="Arial"  y="11">amount&#160;</text><text text-decoration="none" x="83.5" fill="rgb(0, 0, 0)" font-size="9pt" font-family="Arial"  y="11">to&#160;</text><text text-decoration="none" x="97.5" fill="rgb(0, 0, 0)" font-size="9pt" font-family="Arial"  y="11"></text><text text-decoration="none" x="30.5" fill="rgb(0, 0, 0)" font-size="9pt" font-family="Arial"  y="30">validate</text><text text-decoration="none" x="73.5" fill="#4b4b4b" font-size="10pt" font-family="noto_regular"  y="30"></text></g></g><g id="21xjc0x72f"><g transform="translate(635 855)"><ellipse cx="65.50000423192978" cy="25.50000050663948" rx="65.50000423192978" ry="25.50000050663948" fill="rgba(255,255,255,1)" stroke="#5e5ca7" stroke-width="1.5" stroke-linecap="round" stroke-linejoin="round"/></g><g transform="translate(649.5000042319298, 856.0000005066395) rotate(0, 51, 24.5)" width="102" height="49"><text text-decoration="none" x="3.5" fill="rgb(0, 0, 0)" font-size="9pt" font-family="Arial"  y="11">Transaction&#160;</text><text text-decoration="none" x="71.5" fill="rgb(0, 0, 0)" font-size="9pt" font-family="Arial"  y="11">done&#160;</text><text text-decoration="none" x="19.5" fill="rgb(0, 0, 0)" font-size="9pt" font-family="Arial"  y="26">cash&#160;</text><text text-decoration="none" x="48.5" fill="rgb(0, 0, 0)" font-size="9pt" font-family="Arial"  y="26">in&#160;</text><text text-decoration="none" x="61.5" fill="rgb(0, 0, 0)" font-size="9pt" font-family="Arial"  y="26">tray</text><text text-decoration="none" x="82.5" fill="rgb(0, 0, 0)" font-size="9pt" font-family="Arial"  y="26"></text><text text-decoration="none" x="51" fill="#4b4b4b" font-size="10pt" font-family="noto_regular"  y="45"></text></g></g><g id="1uuoi5z8o7"><g transform="translate(630.4 920)"><ellipse cx="71.02727860212326" cy="22.999999850988388" rx="71.02727860212326" ry="22.999999850988388" fill="rgba(255,255,255,1)" stroke="#5e5ca7" stroke-width="1.5" stroke-linecap="round" stroke-linejoin="round"/></g><g transform="translate(655.4272786021232, 933.4999998509884) rotate(0, 46, 9.5)" width="92" height="19"><text text-decoration="none" x="5.5" fill="rgb(0, 0, 0)" font-size="9pt" font-family="Arial"  y="15">Further&#160;</text><text text-decoration="none" x="47.5" fill="rgb(0, 0, 0)" font-size="9pt" font-family="Arial"  y="15">activity</text><text text-decoration="none" x="86.5" fill="#4b4b4b" font-size="10pt" font-family="noto_regular"  y="15"></text></g></g><g id="1pkepf7yv5"><g transform="translate(635 985)"><ellipse cx="68.00000137090683" cy="30.5" rx="68.00000137090683" ry="30.5" fill="rgba(255,255,255,1)" stroke="#5e5ca7" stroke-width="1.5" stroke-linecap="round" stroke-linejoin="round"/></g><g transform="translate(648.0000013709068, 998.5) rotate(0, 55, 17)" width="110" height="34"><text text-decoration="none" x="7" fill="rgb(0, 0, 0)" font-size="9pt" font-family="Arial"  y="11">Stop.&#160;</text><text text-decoration="none" x="38" fill="rgb(0, 0, 0)" font-size="9pt" font-family="Arial"  y="11">Print&#160;</text><text text-decoration="none" x="67" fill="rgb(0, 0, 0)" font-size="9pt" font-family="Arial"  y="11">receipt</text><text text-decoration="none" x="103" fill="rgb(0, 0, 0)" font-size="9pt" font-family="Arial"  y="11"></text><text text-decoration="none" x="28.5" fill="rgb(0, 0, 0)" font-size="9pt" font-family="Arial"  y="30">Eject&#160;</text><text text-decoration="none" x="57.5" fill="rgb(0, 0, 0)" font-size="9pt" font-family="Arial"  y="30">card</text><text text-decoration="none" x="81.5" fill="#4b4b4b" font-size="10pt" font-family="noto_regular"  y="30"></text></g></g><g id="1i1ensd1p6"><g transform="translate(640 1070)"><ellipse cx="65.98463523387909" cy="18.00000035762787" rx="65.98463523387909" ry="18.00000035762787" fill="rgba(255,255,255,1)" stroke="#5e5ca7" stroke-width="1.5" stroke-linecap="round" stroke-linejoin="round"/></g><g transform="translate(675.4846352338791, 1078.5000003576279) rotate(0, 30.5, 9.5)" width="61" height="19"><text text-decoration="none" x="4" fill="rgb(0, 0, 0)" font-size="9pt" font-family="Arial"  y="15">Eject&#160;</text><text text-decoration="none" x="33" fill="rgb(0, 0, 0)" font-size="9pt" font-family="Arial"  y="15">card</text><text text-decoration="none" x="57" fill="#4b4b4b" font-size="10pt" font-family="noto_regular"  y="15"></text></g></g><g id="9hgvat9ck9"><g><path d="M 385,800 L 625,810" fill="none" stroke="#000000" stroke-width="1" stroke-linecap="round" stroke-linejoin="round"/><path d="M 625,810 L 612.2280770472198,803.2124135491215 L 616.3119240951792,809.6379968372992 L 611.7076952383176,815.7015769627759 Z" fill="rgb(0,0,0)" stroke="#000000" stroke-width="1" stroke-linecap="round" stroke-linejoin="round"/></g></g><g id="25rwnq0izw"><g><path d="M 769,806 L 1000,840" fill="none" stroke="#000000" stroke-width="1" stroke-linecap="round" stroke-linejoin="round"/><path d="M 1000,840 L 988.005716399351,831.9172710890998 L 991.3970722272509,838.7337682066084 L 986.1855002824017,844.2840335307253 Z" fill="rgb(0,0,0)" stroke="#000000" stroke-width="1" stroke-linecap="round" stroke-linejoin="round"/></g></g><g id="hlvqoiwi5g"><g><path d="M 995,865 L 765,875" fill="none" stroke="#000000" stroke-width="1" stroke-linecap="round" stroke-linejoin="round"/><path d="M 765,875 L 778.3025932776163,880.6775309625066 L 773.6874070839262,874.6222866485249 L 777.7596279741624,868.1893289830683 Z" fill="rgb(0,0,0)" stroke="#000000" stroke-width="1" stroke-linecap="round" stroke-linejoin="round"/></g></g><g id="rq8lxq7pnb"><mask id="b7e26" x="373" y="803" width="274" height="87" maskUnits="userSpaceOnUse"><rect x="373" y="803" width="274" height="87" fill="white" /><rect x="482.5" y="826.5" width="55" height="40" fill="black" /></mask><g mask="url(#b7e26)"><path d="M 635,878 L 385,815" fill="none" stroke="#000000" stroke-width="1" stroke-linecap="round" stroke-linejoin="round"/><path d="M 385,815 L 396.12075016884245,824.2478246859514 L 393.432002129879,817.1248645367295 L 399.1752562207945,812.1267689242371 Z" fill="rgb(0,0,0)" stroke="#000000" stroke-width="1" stroke-linecap="round" stroke-linejoin="round"/></g><g transform="translate(485.5, 829.5)" width="49" height="34"><text text-decoration="none" x="3.5" fill="rgb(0, 0, 0)" font-size="9pt" font-family="Arial"  y="11">pick&#160;</text><text text-decoration="none" x="28.5" fill="rgb(0, 0, 0)" font-size="9pt" font-family="Arial"  y="11">up&#160;</text><text text-decoration="none" x="45.5" fill="rgb(0, 0, 0)" font-size="9pt" font-family="Arial"  y="11"></text><text text-decoration="none" x="11.5" fill="rgb(0, 0, 0)" font-size="9pt" font-family="Arial"  y="30">cash</text><text text-decoration="none" x="37.5" fill="#4b4b4b" font-size="10pt" font-family="noto_regular"  y="30"></text></g></g><g id="996i4ttcg7"><g><path d="M 1000,865 L 770,940" fill="none" stroke="#000000" stroke-width="1" stroke-linecap="round" stroke-linejoin="round"/><path d="M 770,940 L 784.3383988257883,941.898332123875 L 778.2671800512301,937.3041804180772 L 780.4631413279018,930.0142091303564 Z" fill="rgb(0,0,0)" stroke="#000000" stroke-width="1" stroke-linecap="round" stroke-linejoin="round"/></g></g><g id="2j4o079thv"><mask id="092bc" x="378" y="828" width="263" height="123" maskUnits="userSpaceOnUse"><rect x="378" y="828" width="263" height="123" fill="white" /><rect x="468" y="869.5" width="83" height="40" fill="black" /></mask><g mask="url(#092bc)"><path d="M 629,939 L 390,840" fill="none" stroke="#000000" stroke-width="1" stroke-linecap="round" stroke-linejoin="round"/><path d="M 629,939 L 619.3413350008783,928.234149537791 L 620.9663350248433,935.672247562592 L 614.5576700736516,939.7825931499849 Z" fill="rgb(0,0,0)" stroke="#000000" stroke-width="1" stroke-linecap="round" stroke-linejoin="round"/></g><g transform="translate(471, 872.5)" width="77" height="34"><text text-decoration="none" x="7" fill="rgb(0, 0, 0)" font-size="9pt" font-family="Arial"  y="11">response&#160;</text><text text-decoration="none" x="59" fill="rgb(0, 0, 0)" font-size="9pt" font-family="Arial"  y="11">to</text><text text-decoration="none" x="70" fill="rgb(0, 0, 0)" font-size="9pt" font-family="Arial"  y="11"></text><text text-decoration="none" x="4.5" fill="rgb(0, 0, 0)" font-size="9pt" font-family="Arial"  y="30">cont.&#160;</text><text text-decoration="none" x="34.5" fill="rgb(0, 0, 0)" font-size="9pt" font-family="Arial"  y="30">or&#160;</text><text text-decoration="none" x="48.5" fill="rgb(0, 0, 0)" font-size="9pt" font-family="Arial"  y="30">stop</text><text text-decoration="none" x="72.5" fill="#4b4b4b" font-size="10pt" font-family="noto_regular"  y="30"></text></g></g><g id="2irstewyf2"><g><path d="M 1000,865 L 770,1010" fill="none" stroke="#000000" stroke-width="1" stroke-linecap="round" stroke-linejoin="round"/><path d="M 770,1010 L 784.3668950059784,1008.3309662594497 L 777.3558428232543,1005.362620828818 L 777.7006334637844,997.7568962270041 Z" fill="rgb(0,0,0)" stroke="#000000" stroke-width="1" stroke-linecap="round" stroke-linejoin="round"/></g></g><g id="tv613vcogs"><mask id="38d3b" x="363" y="838" width="284" height="190" maskUnits="userSpaceOnUse"><rect x="363" y="838" width="284" height="190" fill="white" /><rect x="481" y="913" width="48" height="40" fill="black" /></mask><g mask="url(#38d3b)"><path d="M 635,1016 L 375,850" fill="none" stroke="#000000" stroke-width="1" stroke-linecap="round" stroke-linejoin="round"/><path d="M 375,850 L 382.6304394665478,862.2869743748106 L 382.3291824089247,854.6794010764673 L 389.35710776022626,851.7512288545913 Z" fill="rgb(0,0,0)" stroke="#000000" stroke-width="1" stroke-linecap="round" stroke-linejoin="round"/></g><g transform="translate(484, 916)" width="42" height="34"><text text-decoration="none" x="8" fill="rgb(0, 0, 0)" font-size="9pt" font-family="Arial"  y="11">take&#160;</text><text text-decoration="none" x="34" fill="rgb(0, 0, 0)" font-size="9pt" font-family="Arial"  y="11"></text><text text-decoration="none" x="3" fill="rgb(0, 0, 0)" font-size="9pt" font-family="Arial"  y="30">receipt</text><text text-decoration="none" x="39" fill="#4b4b4b" font-size="10pt" font-family="noto_regular"  y="30"></text></g></g><g id="1f11yrv9ke"><g><path d="M 375,865 L 640,1085" fill="none" stroke="#000000" stroke-width="1" stroke-linecap="round" stroke-linejoin="round"/><path d="M 640,1085 L 633.9564836317812,1071.8596325908682 L 633.3095083559646,1079.4456295785367 L 625.9720414361126,1081.477256144742 Z" fill="rgb(0,0,0)" stroke="#000000" stroke-width="1" stroke-linecap="round" stroke-linejoin="round"/></g></g></svg>